<?xml version="1.0" encoding="UTF-8" standalone="no"?>
<!-- Created with Inkscape (http://www.inkscape.org/) -->

<svg
   version="1.1"
   id="svg1"
   width="499"
   height="500"
   viewBox="0 0 499 500"
   xmlns="http://www.w3.org/2000/svg"
   xmlns:svg="http://www.w3.org/2000/svg">
  <defs
     id="defs1" />
  <g
     id="g1">
    <g
       id="g8">
      <path
         style="display:inline;fill:#25a79b"
         d="M 228,481.38332 C 185.98037,476.33013 153.43136,464.73137 121.15622,443.30978 70.257694,409.52751 34.026614,356.00719 22.110452,297 18.657495,279.90143 17.61367,268.78792 17.649062,249.5 17.699458,222.03468 20.732215,203.07222 29.21491,177.18396 42.790488,135.75278 69.381664,97.204413 103.16742,69.977394 136.29329,43.282149 172.16395,27.429877 215.5,20.334402 c 15.45835,-2.531018 52.30328,-2.511983 68.5,0.03539 33.75329,5.308617 66.04642,17.777079 93.46374,36.086603 15.84594,10.582051 25.1698,18.380202 39.08079,32.685787 28.4912,29.299368 48.12127,64.287078 57.98956,103.357818 5.47555,21.6789 6.87182,33.34427 6.88237,57.5 0.0106,24.21726 -1.35596,35.67405 -6.84178,57.35981 -22.68419,89.67188 -96.94952,157.27206 -189.17235,172.19456 -9.50203,1.53752 -49.28528,2.80509 -57.40233,1.82895 z m 52.5,-3.90113 C 345.88774,468.55941 405.27538,431.13485 441.42612,376.07071 466.35337,338.10198 479,295.84534 479,250.52373 479,190.45063 456.91878,135.20805 415.36009,91.310044 379.08971,52.99802 327.06486,27.467834 273.92566,21.90384 259.45584,20.388763 224.5836,21.249315 212.5,23.41966 162.5889,32.384225 120.81927,54.133555 86.280653,89.141723 67.638192,108.03763 55.085709,125.73568 43.471086,149.5 28.387762,180.36151 21.518904,207.94375 20.311112,242.5 18.387179,297.54583 36.030603,350.45233 70.833806,394 120.59769,456.26729 201.09329,488.318 280.5,477.48219 Z M 90.75,395.17668 c -0.9625,-0.17783 -1.761599,-0.62783 -1.775775,-1 C 88.960049,393.8045 88.847549,386.3 88.724225,377.5 L 88.5,361.5 101.25,361.22012 114,360.94025 V 363.97012 367 h -9 -9 v 4 4 h 8 8 v 3 3 h -8 -8 v 4.5 4.5 h 9.5 c 9.46667,0 9.5,0.009 9.5,2.5 0,2.02463 -0.52291,2.52822 -2.75,2.6484 -5.87579,0.31707 -19.837501,0.33543 -21.5,0.0283 z m 33.5,0.004 c -2.23215,-0.31702 -2.25,-0.45385 -2.25,-17.25 V 361 l 9.25,0.006 c 11.73062,0.007 16.28251,1.29164 20.88462,5.89374 7.47104,7.47105 5.70903,20.87501 -3.39404,25.81909 -3.09831,1.68277 -18.837,3.26498 -24.49058,2.46204 z m 16.32692,-6.05545 c 1.41731,-0.0688 3.89231,-1.44038 5.5,-3.04808 4.12508,-4.12508 4.14867,-10.67369 0.055,-15.25535 -2.57349,-2.88023 -3.54941,-3.25337 -9.5,-3.63228 L 130,366.76701 v 11.03316 c 0,6.46655 0.4139,11.17113 1,11.3665 0.92156,0.30718 2.52941,0.30019 9.57692,-0.0417 z m 30.81934,5.44563 c -1.70706,-0.7431 -4.18016,-2.86278 -5.49578,-4.71039 -2.2153,-3.1111 -2.39235,-4.2829 -2.39626,-15.85977 L 163.5,361.5 l 3.75,-0.31037 3.75,-0.31036 v 12.10582 c 0,11.51976 0.11883,12.22465 2.45455,14.56036 C 175.00178,389.09269 177.05163,390 179,390 c 1.94837,0 3.99822,-0.90731 5.54545,-2.45455 2.33437,-2.33436 2.45455,-3.04433 2.45455,-14.5 V 361 h 3.5 3.5 l -0.004,12.75 c -0.003,11.024 -0.27694,13.19811 -2.02189,16.06018 -3.45429,5.66569 -13.27798,7.93826 -20.57811,4.76045 z m 40.10374,0.012 c -3.72671,-1.66345 -8.03106,-6.17824 -9.43638,-9.89774 -2.87746,-7.61583 0.58283,-17.58035 7.43638,-21.41433 4.91355,-2.74873 14.03734,-3.05848 19.11501,-0.64897 4.52663,2.14803 5.019,3.18883 2.6359,5.57194 -1.87519,1.87518 -2.17215,1.89855 -5.0717,0.39913 -5.06389,-2.61864 -10.5331,-2.08493 -13.9825,1.36446 -5.27459,5.27459 -4.47662,13.60449 1.70117,17.75824 4.20867,2.82977 7.60016,2.88799 11.99945,0.206 l 3.39732,-2.07116 2.02037,2.02037 c 1.7702,1.77019 1.84482,2.23204 0.60268,3.7298 -3.45322,4.16382 -14.24062,5.73945 -20.4177,2.98226 z m 53.88125,0.47013 c -0.30669,-0.30402 -1.16998,-2.01527 -1.91841,-3.80277 L 262.10205,388 h -8.47347 -8.47348 L 244,391.5 c -1.05734,3.20379 -1.48498,3.5 -5.0528,3.5 -4.57993,0 -5.06442,2.06213 4.46395,-19 l 6.55971,-14.5 3.7854,-0.2963 3.78539,-0.2963 7.60525,16.95136 7.60525,16.95136 -3.40664,0.39771 c -1.87365,0.21874 -3.65757,0.14896 -3.96426,-0.15506 z m -7.47643,-12.97278 c 1.17597,-0.74451 1.03227,-1.80732 -0.88209,-6.52399 -1.25781,-3.09903 -2.72331,-5.48914 -3.25667,-5.31135 -0.53337,0.17779 -2.01213,2.78297 -3.28615,5.7893 -2.10738,4.97283 -2.16587,5.52738 -0.64815,6.14576 2.40891,0.9815 6.44396,0.93165 8.07306,-0.0997 z m 25.74364,13.23513 C 283.29181,394.95847 283,388.44167 283,380.83333 V 367 h -5.5 c -5.44444,0 -5.5,-0.0303 -5.5,-3 v -3 h 15 15 v 3 c 0,2.9645 -0.0642,3 -5.42252,3 h -5.42252 l -0.32748,13.41956 c -0.18011,7.38076 -0.55248,13.61746 -0.82748,13.85933 -1.0177,0.89508 -5.72475,1.66302 -6.35154,1.03623 z m 52.21272,-0.10286 c -2.38205,-0.29216 -3.33078,-1.9202 -9.75,-16.73134 C 322.20003,369.45668 319,361.83175 319,361.53661 319,361.24147 320.73091,361 322.84647,361 h 3.84646 l 4.92858,11.59561 c 2.71072,6.37759 5.35596,11.59782 5.87832,11.6005 0.52235,0.003 3.23039,-5.10284 6.01785,-11.34561 4.82238,-10.80015 5.22361,-11.36569 8.27522,-11.66386 2.13969,-0.20906 3.20796,0.12376 3.20968,1 0.006,2.81269 -13.57162,32.6863 -15.00258,33.00997 -0.825,0.18661 -2.68747,0.19365 -4.13882,0.0156 z m 20.05351,-0.26498 c -0.87859,-0.543 0.83163,-5.35496 6.18218,-17.39441 l 7.39678,-16.64374 3.84073,0.29543 3.84073,0.29544 7.41244,16.34527 c 4.07685,8.9899 7.41245,16.47492 7.41245,16.63337 0,0.68724 -4.16227,1.29169 -5.85194,0.84983 -1.01857,-0.26636 -2.58629,-2.02424 -3.48382,-3.90638 L 381.03236,388 h -8.06721 -8.0672 l -1.41062,3.37609 c -1.43325,3.43023 -5.04486,5.13344 -7.57264,3.57119 z m 21.29036,-12.53741 c 1.83996,-0.55695 1.79955,-0.7484 -1.98598,-9.40987 l -1.96674,-4.5 -2.65789,5.94615 c -1.46183,3.27038 -2.45945,6.46324 -2.21693,7.09524 0.46398,1.20912 5.92671,1.74656 8.82754,0.86848 z M 307,378 v -17 h 3.5 3.5 v 17 17 H 310.5 307 Z M 174.38391,346.14995 c -16.01275,-7.51704 -12.35947,-31.0816 5.22754,-33.71893 16.26158,-2.43858 27.62292,13.65183 19.25418,27.26857 -4.44431,7.23132 -16.21292,10.33208 -24.48172,6.45036 z m 14.67148,-6.17959 c 4.43777,-2.37503 6.25873,-10.52845 3.52992,-15.80538 -3.18096,-6.15131 -12.56206,-7.34207 -17.66223,-2.2419 C 172.44853,324.39763 172,325.63698 172,330 c 0,4.36302 0.44853,5.60237 2.92308,8.07692 2.39128,2.39129 3.76771,2.92308 7.56574,2.92308 2.55346,0 5.50842,-0.46334 6.56657,-1.02964 z m 99.3269,5.53285 c -16.40314,-8.17402 -10.37637,-32.98694 8.11771,-33.42156 4.25627,-0.10002 9.94387,1.64278 12.66998,3.88234 l 2.33002,1.91417 -2.16037,2.19352 -2.16037,2.19351 -4.36625,-2.11367 c -3.58505,-1.73549 -5.00099,-1.9384 -7.91389,-1.13411 C 289.32374,320.55685 286.5,324.24913 286.5,330 c 0,5.75087 2.82374,9.44315 8.39912,10.98259 2.9129,0.80429 4.32884,0.60138 7.91389,-1.13411 l 4.36625,-2.11367 2.16037,2.19351 2.16037,2.19352 -2.33002,1.91417 c -5.40313,4.4388 -13.65561,5.02127 -20.78769,1.4672 z m 54.07634,0.61713 c -4.50762,-2.04753 -9.13502,-6.9828 -10.08094,-10.75164 -1.0369,-4.13132 0.22105,-12.35298 2.32462,-15.19319 9.34885,-12.6227 30.24513,-9.22558 34.22766,5.5644 3.90313,14.49513 -12.17548,26.87414 -26.47134,20.38043 z m 16.2002,-8.28612 c 3.92233,-4.09403 4.07429,-11.55565 0.31196,-15.31798 -7.456,-7.456 -19.42534,-2.84472 -19.42534,7.48376 0,10.15202 12.1296,15.12372 19.11338,7.83422 z M 69,330 v -17 h 3.5 3.5 v 17 17 H 72.5 69 Z m 16,0 v -17 h 3.411431 c 3.093439,0 4.069679,0.82543 10.473163,8.85528 C 109.44132,335.09322 109,335.03794 109,323.12244 V 313 h 4 4 v 17 17 h -3.43632 c -3.14504,0 -4.14101,-0.86226 -11.75,-10.17254 L 93.5,326.65491 93.215017,336.82746 92.930034,347 H 88.965017 85 Z m 41,0 v -17 l 3.25,0.0509 c 2.89515,0.0454 4.11739,1.1372 11.19433,10 4.36939,5.47199 8.30689,9.94908 8.75,9.94908 C 149.63745,333 150,328.5 150,323 v -10 h 3.5 3.5 v 17 17 h -3.26596 c -2.93705,0 -4.07002,-1.00588 -11.25,-9.98804 -4.39122,-5.49343 -8.32154,-9.99343 -8.73404,-10 C 133.3375,327.00538 133,331.5 133,337 v 10 h -3.5 -3.5 z m 85.59908,3.22996 c -3.24551,-7.55148 -6.52521,-15.21917 -7.28823,-17.03933 l -1.3873,-3.30936 4.20354,0.30936 4.20355,0.30937 4.98821,11.75 c 2.74352,6.4625 5.26934,11.75 5.61292,11.75 0.34359,0 2.87407,-5.2875 5.6233,-11.75 l 4.99859,-11.75 3.82872,-0.31666 c 2.14429,-0.17734 3.6723,0.10361 3.47317,0.63862 -0.19555,0.5254 -3.48418,8.20539 -7.30806,17.06665 L 225.59497,347 221.54749,346.98 217.5,346.96 Z m 27.84156,12.06413 c 0.36004,-0.93824 3.67068,-8.5788 7.35699,-16.97902 l 6.70237,-15.27311 4.18261,-0.021 c 3.43725,-0.0172 4.30669,0.36995 4.87887,2.17273 0.38294,1.20654 3.74097,8.85654 7.46228,17 L 276.78979,347 h -3.94592 c -3.56441,0 -4.08732,-0.3384 -5.40832,-3.5 L 265.97316,340 H 257.5 249.02684 l -1.46239,3.5 c -1.29343,3.09561 -1.88504,3.5 -5.12041,3.5 -3.03696,0 -3.54688,-0.28963 -3.0034,-1.70591 z M 262.4226,331.75 C 261.12408,327.64758 258.08005,321 257.5,321 c -0.58005,0 -3.62408,6.64758 -4.9226,10.75 -0.68096,2.15139 -0.46522,2.25 4.9226,2.25 5.38782,0 5.60356,-0.0986 4.9226,-2.25 z M 317,330 v -17 h 4 4 v 17 17 h -4 -4 z m 59,0 v -17 h 3.37232 c 3.05821,0 4.15262,0.94564 11.75,10.15288 L 399.5,333.30575 399.78498,323.15288 400.06997,313 H 404.03498 408 v 17 17 h -3.38719 c -3.08406,0 -4.1356,-0.91575 -11.75,-10.23261 L 384.5,326.53479 384.21502,336.76739 383.93003,347 H 379.96502 376 Z m -26.5,-24 c 2.25346,-2.35211 3.73611,-3 6.86523,-3 h 3.99105 l -3.92814,2.97218 c -2.24056,1.69529 -5.18995,2.98413 -6.86523,3 L 346.62582,309 Z m -207.91806,-7.79377 c -11.64558,-4.04022 -15.45414,-18.58751 -7.29824,-27.87657 3.92518,-4.47053 8.19482,-6.33635 14.43418,-6.3077 4.59118,0.0211 12.39121,2.7275 13.62793,4.72855 0.3259,0.52733 -0.42452,1.91426 -1.66761,3.08208 l -2.26017,2.12332 -4.27672,-2.11596 c -3.76655,-1.86354 -4.75152,-1.9737 -8.25684,-0.92348 -6.92853,2.07583 -10.03953,10.62672 -6.2192,17.09403 3.07221,5.20084 10.09568,6.53643 15.80794,3.00606 l 3.20927,-1.98344 2.17428,2.31441 c 2.15172,2.2904 2.15406,2.33271 0.22495,4.07852 -2.37085,2.14559 -8.67397,4.48612 -12.08171,4.48629 -1.375,6e-5 -4.71313,-0.76768 -7.41806,-1.70611 z m 180.54086,0.79169 C 314.28356,297.14708 309,290.40527 309,282.25325 c 0,-10.57415 6.06926,-17.17981 16.58607,-18.05194 18.13665,-1.50404 27.99281,17.4551 15.54528,29.90263 -5.14619,5.1462 -11.26636,6.72191 -19.00855,4.89398 z m 12.88058,-8.84746 c 5.86158,-5.86157 4.45733,-15.28036 -2.79095,-18.7199 -3.23186,-1.53361 -4.06911,-1.56975 -7.58214,-0.32727 -5.08859,1.79972 -7.90302,5.61167 -7.90302,10.70411 0,6.76364 4.49942,11.09142 11.59965,11.15716 2.90256,0.0269 4.51521,-0.65284 6.67646,-2.8141 z M 169,281.5 V 264 h 13.06336 13.06336 l -0.31336,3.25 -0.31336,3.25 -8.75,0.28893 -8.75,0.28894 v 4.02636 4.02636 l 7.75,-0.23195 c 7.71733,-0.23096 7.75133,-0.2207 8.06642,2.43471 L 193.13284,284 H 185.06642 177 v 4.5 4.5 h 9.5 9.5 v 3 3 H 182.5 169 Z m 33.54461,0.24827 0.0446,-17.24827 2.97796,-0.2964 c 2.69686,-0.26841 3.77818,0.69322 11.4554,10.18744 4.66258,5.76611 8.81493,10.51198 9.22743,10.54639 C 226.6625,284.97185 227,280.275 227,274.5 V 264 h 3.5 3.5 v 17.5 17.5 l -3.25,-0.0416 c -2.89411,-0.037 -4.12604,-1.12946 -11.25,-9.9761 -4.4,-5.46399 -8.3375,-9.94528 -8.75,-9.95843 C 210.3375,279.01076 210,283.5 210,289 v 10 l -3.75,-0.002 -3.75,-0.002 z M 250,285 v -14 h -5.56336 -5.56336 l 0.31336,-3.25 0.31336,-3.25 14.75,-0.27673 14.75,-0.27674 V 267.47327 271 h -5.5 -5.5 v 14 14 h -4 -4 z m 24,-3.63108 v -17.63108 l 10.25,0.46481 c 11.55066,0.52379 15.82608,2.11 18.23307,6.76462 2.85709,5.525 1.4306,12.54883 -3.15938,15.55629 l -2.36805,1.55161 2.852,4.21242 c 4.7126,6.96051 4.69984,6.71241 0.34518,6.71241 -3.61263,0 -4.28461,-0.44459 -7.55735,-5 -3.13535,-4.36418 -4.03743,-5 -7.09381,-5 H 282 v 5 5 h -4 -4 z m 20.17126,-0.0239 c 2.27701,-2.06067 2.35945,-6.1011 0.17375,-8.51627 -1.21009,-1.33714 -3.09183,-1.82874 -7,-1.82874 H 282 v 6 6 h 5.17126 c 3.40859,0 5.7946,-0.56412 7,-1.65499 z M 168.76339,239.03594 c -7.35924,-1.34598 -14.65269,-3.94642 -21.92976,-7.81894 l -6.66636,-3.54753 -6.83364,4.11361 c -3.7585,2.26248 -7.5606,4.38677 -8.44912,4.72063 -1.13798,0.42761 -3.72434,-1.68161 -8.75,-7.13577 C 112.21053,225.1094 109,221.06429 109,220.3788 c 0,-0.68548 2.25,-4.04989 5,-7.47645 2.75,-3.42657 5,-7.01633 5,-7.97725 0,-1.95571 -3.87532,-12.79651 -5.20779,-14.56824 -0.47285,-0.62872 -3.88203,-1.701 -7.57597,-2.38284 C 95.664918,186.02642 96,186.45235 96,174.98787 c 0,-9.51628 0.107612,-10.01227 2.514428,-11.58928 1.382935,-0.90613 4.645432,-1.85099 7.250002,-2.09969 8.17545,-0.78062 9.77726,-1.86834 13.15034,-8.92982 1.69688,-3.55238 3.0838,-7.00118 3.08205,-7.66398 C 121.99507,144.04229 120.1965,140.8 118,137.5 c -2.1965,-3.3 -3.99507,-6.97522 -3.99682,-8.16716 -0.003,-2.25216 13.36161,-15.3002 15.69386,-15.32177 0.65838,-0.006 4.22024,2.27717 7.91525,5.07392 7.50298,5.67899 6.32565,5.63177 19.88771,0.7977 7.61721,-2.71508 10.76689,-3.27369 20.5,-3.63573 14.35789,-0.53408 23.5253,1.24089 34.5,6.67981 4.4,2.18059 10.25,5.97572 13,8.43364 5.98427,5.34867 6.049,5.14727 -4.81541,14.98054 l -7.64949,6.92348 -4.14417,-3.74401 c -5.5925,-5.05248 -15.15445,-9.36959 -22.43913,-10.13099 -6.57914,-0.68765 -15.44188,1.10966 -22.65372,4.59404 -3.22687,1.55905 -4.35648,1.73391 -4.9596,0.7677 -1.13944,-1.82538 -8.97906,2.55515 -13.47095,7.52713 -14.06731,15.57084 -11.89973,42.0269 4.46021,54.43844 4.74136,3.59706 6.17226,4.02738 6.17226,1.85622 0,-1.00406 1.66425,-0.42489 5.6147,1.95395 7.20354,4.33774 14.16459,5.85862 24.16518,5.27969 9.05493,-0.52418 15.94855,-3.3144 22.9095,-9.27272 2.2707,-1.94363 4.50701,-3.51185 4.96958,-3.48492 0.46257,0.0269 4.57521,3.55839 9.13919,7.84771 l 8.29814,7.79875 -6.05191,5.60301 c -6.53526,6.05049 -15.20565,10.7052 -24.61737,13.21586 -7.04392,1.87902 -24.99338,2.74161 -31.66362,1.52165 z m -36.24654,-13.50357 c 3.03709,-1.9428 6.42608,-3.53237 7.53108,-3.53237 1.10501,0 4.74181,1.37946 8.08178,3.06548 3.33997,1.68601 6.22279,2.91535 6.40628,2.73186 0.18348,-0.18348 0.64111,-2.65168 1.01695,-5.48488 l 0.68334,-5.15127 -4.29277,-2.19001 c -6.06379,-3.09352 -14.07528,-11.4784 -17.32671,-18.13425 -10.39402,-21.27718 -2.02526,-46.49619 19.1332,-57.65732 l 6.25,-3.29689 v -5.41661 c 0,-6.11149 1.17168,-5.92486 -9.80356,-1.56155 -6.0388,2.40078 -6.50491,2.26948 -14.56716,-4.10336 l -4.91287,-3.88341 -2.60821,2.27356 c -1.43451,1.25046 -3.81709,3.35074 -5.29462,4.66728 l -2.68642,2.39372 4.43642,6.61315 c 2.44003,3.63723 4.43642,7.18944 4.43642,7.89381 0,0.70436 -2.03714,5.33684 -4.52698,10.2944 -4.95574,9.86747 -5.73354,10.47532 -14.65304,11.45124 -3.12401,0.34181 -6.1851,1.23006 -6.80242,1.97389 -0.63542,0.76564 -0.99119,3.88378 -0.81998,7.18679 L 102.5,181.5 l 7.2159,1.5 c 3.96875,0.825 7.85523,2.175 8.63663,3 1.39633,1.47424 7.64747,17.60399 7.64747,19.73269 0,0.59824 -1.86942,3.49062 -4.15426,6.42751 -2.28485,2.93689 -4.5433,5.84609 -5.01879,6.4649 -1.10188,1.43399 7.16826,11.53473 8.92049,10.89504 0.68609,-0.25047 3.73232,-2.04497 6.76941,-3.98777 z M 241.24213,179.43324 241.5,119.86648 h 13 13 l 0.25787,59.56676 L 268.01574,239 H 254.5 240.98426 Z M 280,183.06739 c 0,-54.25258 -0.0576,-55.9509 -1.91754,-56.54122 -7.00692,-2.22391 -9.41954,-9.01799 -4.33246,-12.20046 1.5125,-0.94621 2.94432,-1.86341 3.18183,-2.03821 0.2375,-0.1748 -4.825,-5.6402 -11.25,-12.14533 -11.48718,-11.63043 -13.17066,-14.366573 -10.91652,-17.742466 1.28394,-1.922867 5.02505,-3.415108 6.91225,-2.757127 1.00234,0.349472 4.39959,3.136026 7.54943,6.192342 l 5.72699,5.556939 2.33746,-2.195929 C 278.65071,87.918967 280.91388,87 282.69944,87 c 2.17176,0 3.55002,-0.731778 4.7086,-2.5 1.16648,-1.780271 2.53406,-2.5 4.75034,-2.5 2.03525,0 3.91407,-0.865144 5.4292,-2.5 4.42777,-4.777641 6.70269,-3.696007 19.45488,9.25 C 329.69099,101.59076 331,103.99317 331,114.36602 V 120 h 19.43138 19.43138 l 0.31862,9.6034 c 0.17524,5.28187 0.0712,10.00024 -0.23129,10.48526 -0.30245,0.48502 -14.47745,1.00099 -31.5,1.1466 L 307.5,141.5 307.22097,154.75 306.94195,168 H 334.97097 363 v 10.48418 10.48418 l -27.75,0.26582 -27.75,0.26582 -0.27741,13.6262 c -0.27279,13.39876 -0.23985,13.63602 1.97332,14.21478 1.23791,0.32372 15.98774,0.57149 32.77741,0.55059 l 30.52668,-0.038 0.28383,10.57321 L 373.06766,239 H 326.53383 280 Z m 33.78212,-48.61622 c 8.51684,-3.54801 15.15601,-13.0434 15.19592,-21.73329 C 329.01285,105.13795 326.71305,101.29657 315.2274,89.75 304.66417,79.130754 301.91021,77.489791 299.2,80.2 c -2.05657,2.056569 -1.3463,4.075225 2.98763,8.491183 2.3032,2.346788 3.86707,4.587454 3.47526,4.979259 -0.3918,0.391804 -3.07789,-1.623761 -5.96908,-4.479035 C 294.47056,84.03303 291.49771,82.902286 289.2,85.2 c -2.10011,2.100107 -1.32057,4.108892 3.48971,8.992607 2.57934,2.618718 4.36757,5.083443 3.97385,5.477167 -0.39372,0.393726 -3.30464,-1.845906 -6.46871,-4.976956 C 284.5085,89.065806 281.54512,87.85488 279.2,90.2 c -2.13768,2.13768 -1.29583,4.140074 3.99141,9.493814 2.85527,2.891186 4.8726,5.575516 4.48294,5.965166 -0.38965,0.38965 -6.47695,-4.99921 -13.52734,-11.97526 C 267.09663,86.707674 260.99972,81 260.59832,81 c -0.40139,0 -1.60022,0.465833 -2.66406,1.035184 -4.11249,2.200938 -2.30541,5.121174 12.0118,19.410976 7.67033,7.65566 13.74339,14.24731 13.49568,14.64811 -0.24771,0.40081 -1.80989,0.21558 -3.4715,-0.41161 -3.58668,-1.35382 -6.302,-0.10591 -6.78296,3.11733 -0.37638,2.52236 3.48883,5.14726 18.10289,12.29387 11.02122,5.38963 15.87449,6.11407 22.49195,3.35731 z M 166.5,207.07941 C 158.27974,205.02075 151.12258,199.1582 146.8698,191 c -3.32374,-6.37599 -3.37585,-19.56204 -0.10166,-25.7222 4.98837,-9.38527 13.88396,-15.83615 22.73186,-16.48463 3.4818,-0.25519 4.04102,-0.005 4.31661,1.93436 0.27126,1.90848 -0.26745,2.32093 -3.76109,2.87958 -6.40945,1.02492 -14.03631,6.16775 -17.51961,11.81358 -2.68811,4.35698 -3.03591,5.79745 -3.03591,12.57384 0,6.76902 0.34994,8.22224 3.02914,12.57931 3.68339,5.99014 10.90601,11.06895 17.05192,11.99059 3.87915,0.58171 4.48277,0.983 4.22256,2.80715 -0.33686,2.36146 -2.58996,2.88831 -7.30362,1.70783 z M 245.06339,107.0892 C 234.09981,102.64344 227.48026,92.606648 227.52706,80.5 c 0.0324,-8.373673 2.40004,-14.223132 7.9875,-19.733477 5.87456,-5.79348 11.74025,-8.200232 19.98544,-8.200232 14.9978,0 26.39187,10.281678 28.18652,25.434699 0.4824,4.073087 0.30946,4.99901 -0.93369,4.99901 -1.05405,0 -1.74484,-1.468486 -2.23445,-4.75 -2.09119,-14.015792 -11.52015,-22.219269 -25.56262,-22.240231 -5.61333,-0.0084 -7.3194,0.453441 -11.99363,3.246599 -10.00569,5.97905 -14.65028,17.424783 -11.48675,28.306954 3.67922,12.656048 17.69522,20.968598 29.74552,17.641348 2.80995,-0.77586 3.94534,-0.70929 4.76591,0.27944 2.86778,3.45546 -13.30138,4.69584 -20.92342,1.60509 z m 3.39524,-9.968864 c -4.666,-2.119469 -9.2099,-7.084352 -10.01915,-10.947408 -0.30797,-1.47011 -0.71856,-3.47132 -0.91242,-4.447131 -0.51142,-2.574247 1.39013,-8.789959 3.67064,-11.998436 5.17235,-7.277032 17.91158,-8.932336 25.31063,-3.288801 4.47841,3.415849 6.50155,7.886193 6.46236,14.279321 l -0.0293,4.782119 -2.7976,-3.072066 c -6.42665,-7.05713 -10.95631,-8.139442 -16.06704,-3.83904 C 251.5294,80.732323 251,81.909413 251,85.429757 c 0,3.613863 0.60029,4.864359 4,8.332578 2.2,2.244335 4,4.340946 4,4.659137 0,1.261243 -6.72873,0.430708 -10.54137,-1.301136 z"
         id="path10" />
      <path
         style="display:inline;fill:#563766"
         d="M 221.25778,480.42357 C 119.8867,468.1429 37.858788,389.69169 20.584125,288.5 15.308673,257.5974 16.695398,224.0571 24.535808,192.92182 34.934767,151.62621 57.701601,112.66938 88.917253,82.757314 144.54384,29.453736 221.30711,7.426939 297.09969,23.020511 c 45.29925,9.319871 86.19535,31.87941 118.94785,65.615269 34.71238,35.75459 55.92573,78.88731 63.62333,129.36422 2.42015,15.8701 2.37853,48.01473 -0.0835,64.5 -9.98288,66.84305 -46.89876,124.777 -103.08736,161.78016 -38.26568,25.19997 -81.92825,37.94492 -128.85595,37.6126 -8.32923,-0.059 -20.20305,-0.72012 -26.38627,-1.46919 z m 60.69081,-2.97995 c 23.79552,-3.45843 44.77698,-9.87511 66.55141,-20.35315 25.54216,-12.2911 43.4613,-25.00599 63.51614,-45.06914 37.51796,-37.53353 59.98863,-84.45444 66.0505,-137.91978 1.72358,-15.20184 0.7122,-47.48786 -1.96102,-62.60155 C 458.99331,114.75168 384.13452,40.163289 287.5,23.575656 251.15618,17.337119 208.99617,20.887745 174.35745,33.104279 126.20308,50.087574 85.600137,81.713473 57.765971,123.91816 14.40942,189.65928 7.9634383,273.39678 40.708947,345.5 75.300787,421.66871 149.31173,472.80595 234.5,479.39832 c 9.31548,0.72088 36.8416,-0.41309 47.44859,-1.9547 z M 176.5,346.83524 c -5.15488,-1.92519 -8.66333,-4.98384 -10.59457,-9.23631 -8.35262,-18.39196 14.77657,-33.81886 30.0355,-20.03333 8.6072,7.77609 7.15632,21.63927 -2.85349,27.2651 -4.72867,2.65766 -12.36701,3.58073 -16.58744,2.00454 z m 10.9657,-6.25646 c 9.22135,-3.85293 8.38382,-18.74594 -1.21595,-21.6221 -7.49894,-2.24674 -14.52248,3.09417 -14.52248,11.04332 0,4.85654 2.42075,8.72376 6.59821,10.54087 4.05252,1.76276 5.00264,1.7667 9.14022,0.0379 z m 103.18949,5.96257 C 282.97236,343.80205 279,338.06128 279,329.69754 c 0,-6.16361 2.48233,-10.75817 7.71903,-14.28718 6.14533,-4.14133 16.54213,-3.83354 22.28097,0.65961 l 2.5,1.95735 -2.38974,2.00979 c -2.09407,1.76112 -2.65084,1.84087 -4.5,0.64453 C 296.28288,315.29413 286,320.81785 286,330.67862 c 0,2.93192 2.17254,6.87891 4.95411,9.00046 3.1032,2.36685 8.01282,2.54009 12.06906,0.42586 3.83021,-1.99642 3.88758,-1.9971 6.17149,-0.0737 l 2.30534,1.94144 -2.5,2.00348 c -4.90677,3.93225 -11.80522,4.89688 -18.34481,2.56519 z m 53,0 c -9.73405,-3.47066 -14.34549,-14.1668 -10.29116,-23.87016 4.33889,-10.38444 20.53223,-13.67803 29.62642,-6.02577 C 367.29109,320.26417 369,324.06175 369,330 c 0,5.93277 -1.70877,9.73571 -5.99514,13.34245 -5.32216,4.47831 -12.45438,5.65741 -19.34967,3.1989 z m 10.64683,-5.60829 c 9.61375,-2.66967 10.224,-17.08291 0.91041,-21.5025 -3.23186,-1.53361 -4.06911,-1.56975 -7.58214,-0.32727 -5.26184,1.86099 -8.13029,5.8707 -8.13029,11.36505 0,4.86591 2.16124,7.99327 7,10.12915 3.6884,1.62809 3.22002,1.60795 7.80202,0.33557 z M 69,330 v -17 h 3.5 3.5 v 17 17 H 72.5 69 Z m 16,0 v -17 h 3.316004 c 3.006398,0 4.103463,0.97742 11.749996,10.46853 l 8.434,10.46854 0.28383,-10.46854 L 109.06766,313 H 113.03383 117 v 17 17 h -3.35869 c -3.04206,0 -4.13026,-0.94274 -11.54302,-10 -4.501373,-5.5 -8.627338,-10 -9.168807,-10 -0.608063,0 -0.825566,3.82357 -0.568847,10 l 0.415643,10 H 88.888139 85 Z m 41,0 v -17 h 2.92809 c 2.50084,0 4.21535,1.55169 11.75,10.63416 L 149.5,334.26833 149.78383,323.63416 150.06766,313 H 153.53383 157 v 17 17 l -3.25,-0.0437 c -2.89425,-0.0389 -4.1257,-1.13263 -11.25,-9.99158 -4.4,-5.47134 -8.3375,-9.95167 -8.75,-9.9563 C 133.3375,327.00379 133,331.5 133,337 v 10 h -3.5 -3.5 z m 90.64419,14.25 c -0.77394,-1.5125 -3.98742,-8.825 -7.14107,-16.25 -3.15365,-7.425 -5.95086,-13.86552 -6.21601,-14.31226 -0.26516,-0.44675 1.39558,-0.67175 3.69052,-0.5 l 4.17263,0.31226 5.04292,11.75 c 2.77361,6.4625 5.37071,11.75 5.77134,11.75 0.40063,0 2.9729,-5.2875 5.71617,-11.75 l 4.98776,-11.75 3.77133,-0.31666 c 2.07423,-0.17416 3.61133,0.0852 3.41577,0.57633 -0.19555,0.49114 -3.50555,8.16648 -7.35555,17.0563 l -7,16.16332 -3.72432,0.0104 c -3.06032,0.009 -3.9752,-0.47993 -5.13149,-2.73964 z m 22.42899,2 c 0.0403,-0.4125 3.31941,-7.95 7.28701,-16.75 l 7.21383,-16 3.96299,-0.25915 3.96299,-0.25914 6.72686,15.25914 C 277.30253,348.828 276.8744,347 272.62041,347 c -3.16172,0 -3.76931,-0.42061 -5.05596,-3.5 l -1.4624,-3.5 H 257.5 248.89795 l -1.4624,3.5 c -1.27485,3.05114 -1.90952,3.5 -4.94897,3.5 -1.91762,0 -3.45365,-0.3375 -3.4134,-0.75 z M 263,333.36407 c 0,-1.61464 -4.5889,-12.33638 -5.28554,-12.34939 -0.75423,-0.0141 -3.65019,6.03781 -5.13706,10.73532 -0.68027,2.14919 -0.46272,2.25 4.85521,2.25 C 260.49468,334 263,333.71383 263,333.36407 Z M 318,330 v -17 h 3.5 3.5 v 17 17 h -3.5 -3.5 z m 58,0 v -17 h 3.35869 c 3.04206,0 4.13026,0.94274 11.54302,10 4.50137,5.5 8.50246,10.00018 8.8913,10.0004 0.38885,2.2e-4 0.61733,-4.49978 0.50775,-10 L 400.10152,313 H 404.05076 408 v 17 17 h -3.29368 c -2.96068,0 -4.14864,-1.0363 -11.75,-10.25 L 384.5,326.5 384.21502,336.75 383.93003,347 H 379.96502 376 Z m -25.84188,-24 c 1.75813,-2.378 2.9565,-2.99157 5.77994,-2.95936 l 3.56194,0.0406 -3.46223,2.95936 C 354.13355,307.66829 351.53258,309 350.25784,309 h -2.31771 z m -206.51216,-7.12194 c -12.88713,-2.97612 -18.13492,-19.15373 -9.32935,-28.75998 6.54148,-7.13628 21.3163,-8.09075 26.60109,-1.71846 1.24214,1.49776 1.16752,1.95961 -0.60268,3.7298 l -2.02037,2.02037 -3.39732,-2.07116 c -4.03067,-2.45727 -6.96034,-2.61452 -10.88629,-0.58434 -4.03546,2.08682 -6.01104,5.3004 -6.01104,9.77788 0,9.65257 8.46031,14.64387 17.17921,10.13516 2.89955,-1.49942 3.19651,-1.47605 5.0717,0.39913 1.09549,1.09549 1.68366,2.4904 1.30703,3.09979 -2.0582,3.33024 -11.56343,5.43793 -17.91198,3.97181 z m 178.91833,-0.001 C 314.26896,296.93222 309,290.20151 309,281.54921 c 0,-10.77084 9.34608,-18.44303 21.092,-17.31439 9.63597,0.92589 16.13877,8.08178 16.13877,17.75961 0,8.04279 -4.67909,14.17032 -12.62188,16.52908 -5.53631,1.6441 -5.53664,1.64411 -11.0446,0.35308 z M 335.01895,290.25 c 8.38512,-7.5591 1.51372,-21.88572 -9.50544,-19.81851 -6.4028,1.20117 -10.61032,8.7151 -8.48544,15.15356 2.50581,7.59269 12.00963,10.05698 17.99088,4.66495 z M 169,282 v -17 h 13 13 v 2.46247 c 0,2.41844 -0.16543,2.46762 -9.25,2.75 L 176.5,270.5 v 4 4 l 8.25,0.29044 c 7.97973,0.28093 8.25,0.36969 8.25,2.70956 0,2.33987 -0.27027,2.42863 -8.25,2.70956 L 176.5,284.5 v 4 4 l 9.48202,0.5 9.48202,0.5 0.20807,2.75 0.20806,2.75 H 182.44009 169 Z m 34,-0.34258 v -17.34258 l 3.38301,0.59258 c 2.77558,0.48618 4.7704,2.29833 11.10993,10.09258 4.24981,5.225 8.12746,9.65 8.61699,9.83333 0.48954,0.18334 0.89007,-4.20416 0.89007,-9.75 V 265 h 3.5 3.5 v 17 17 h -2.98993 c -2.56398,0 -4.13895,-1.389 -11.05542,-9.75 -4.43603,-5.3625 -8.49056,-9.9 -9.01008,-10.08333 -0.55235,-0.19492 -0.94457,3.85362 -0.94457,9.75 V 299 H 206.5 203 Z M 249.77746,284.75 249.5,270.5 l -5,-0.0808 c -4.64814,-0.0751 -5.02227,-0.2686 -5.31642,-2.75 L 238.86716,265 H 253.93358 269 v 2.77698 c 0,2.68678 -0.17055,2.77611 -5.25,2.75 L 258.5,270.5 258.22254,284.75 257.94509,299 H 254 250.05491 Z M 274,282 v -17 h 10.09887 c 12.19464,0 16.39808,1.55178 18.62215,6.87474 2.08712,4.99518 1.04873,9.99412 -2.79572,13.45894 l -3.14415,2.83367 2.94174,4.16633 c 4.80366,6.8033 4.79236,6.66632 0.54958,6.66632 -3.45029,0 -4.22924,-0.51393 -7.57841,-5 -3.23065,-4.32733 -4.2011,-5 -7.21345,-5 H 282 v 5 5 h -4 -4 z m 20.17126,-0.65499 c 1.92024,-1.73779 2.3969,-5.90003 0.93913,-8.20063 -0.98666,-1.55712 -9.36705,-3.36686 -11.60832,-2.5068 C 282.40111,271.06006 282,272.78764 282,277.10699 V 283 h 5.17126 c 3.40859,0 5.7946,-0.56412 7,-1.65499 z M 170.5,239.0635 c -8.51379,-1.3912 -13.70328,-3.08804 -21.8658,-7.14959 C 144.30802,229.76126 140.3886,228 139.9244,228 c -0.46421,0 -3.6746,1.79572 -7.13421,3.9905 -3.4596,2.19477 -7.26224,3.99477 -8.45029,4 -1.42781,0.006 -4.39416,-2.48666 -8.75,-7.35355 -3.62445,-4.04968 -6.5899,-7.81732 -6.5899,-8.37254 0,-0.55522 2.28712,-3.87064 5.08248,-7.36759 5.57773,-6.97765 5.73652,-8.06892 2.45863,-16.89682 -2.26656,-6.10424 -3.17101,-6.82491 -10.06988,-8.02375 C 95.673924,186.09997 96,186.50266 96,175.04449 c 0,-9.34834 0.150506,-10.097 2.314961,-11.51521 1.273229,-0.83425 4.535729,-1.78187 7.249999,-2.10582 8.7829,-1.04824 10.43922,-2.15606 13.57999,-9.08286 1.57028,-3.46318 2.85505,-6.93029 2.85505,-7.70469 0,-0.7744 -1.8,-4.10353 -4,-7.39805 -2.2,-3.29453 -4,-6.91477 -4,-8.04498 0,-1.30993 2.73067,-4.43648 7.53195,-8.62391 4.14257,-3.61293 7.90046,-6.56897 8.35087,-6.56897 0.4504,0 3.85044,2.29492 7.55564,5.09983 7.57758,5.73638 6.61082,5.70027 20.06154,0.74932 8.63786,-3.17943 9.58345,-3.31341 23.5,-3.32989 16.32202,-0.0193 23.55371,1.61585 34.21548,7.73654 5.48933,3.1513 14.78452,11.11839 14.78452,12.6721 0,0.4112 -3.7277,4.14099 -8.28377,8.28843 l -8.28377,7.5408 -4.73338,-3.79766 c -13.36221,-10.7207 -28.19758,-12.57851 -44.14075,-5.52768 -4.24108,1.8756 -5.55833,2.12804 -5.55833,1.0652 0,-1.11357 -0.60192,-1.18312 -3.00106,-0.34677 -4.82259,1.68116 -12.38019,9.2204 -16.07625,16.03719 -3.3069,6.09904 -3.42269,6.68472 -3.42269,17.31259 0,10.20121 0.21457,11.42385 2.95477,16.8368 4.4324,8.7557 16.54523,19.1467 16.54523,14.19334 0,-1.11484 0.86351,-0.88387 3.57505,0.95623 6.3781,4.3283 14.07227,6.60042 22.41328,6.61875 4.22259,0.009 8.99013,-0.29995 10.59455,-0.68718 4.7848,-1.15482 12.22654,-5.25097 16.41583,-9.03574 3.59387,-3.24684 4.10053,-3.4261 5.97432,-2.11364 3.25384,2.27908 15.02697,13.81318 15.02697,14.72188 0,1.76664 -10.2037,9.86886 -16.78184,13.32558 -3.80841,2.00126 -9.80299,4.31659 -13.32127,5.14517 -7.97002,1.87698 -22.77694,2.68405 -29.39689,1.60231 z M 131.87871,226 c 3.40382,-2.2 7.08642,-4 8.18355,-4 1.09712,0 4.72748,1.37946 8.06745,3.06548 3.33997,1.68601 6.31724,2.8209 6.61616,2.52198 0.29892,-0.29892 0.74504,-2.69088 0.99138,-5.31547 l 0.4479,-4.77199 -6.62032,-4.32965 c -27.39278,-17.91474 -25.1732,-58.57845 4.02495,-73.73914 l 5.91022,-3.06879 0.30006,-5.68635 0.30005,-5.68635 -5.30005,2.16688 c -9.39661,3.84171 -11.10374,3.6855 -17.87701,-1.63589 -6.64894,-5.2237 -6.04619,-5.28321 -13.08453,1.29184 l -3.66147,3.42046 4.55144,7.37519 4.55144,7.37519 -4.60183,9.51856 c -5.05568,10.4573 -5.45762,10.77417 -15.1781,11.96563 -3.3,0.40448 -6.33061,1.25225 -6.73469,1.88392 -0.40408,0.63168 -0.74158,3.88882 -0.75,7.2381 l -0.0153,6.08959 7.03805,1.32799 c 3.87093,0.73039 7.7577,1.8542 8.63727,2.49736 2.09568,1.5324 8.37659,19.17007 7.59438,21.32606 -0.33312,0.91817 -2.25363,3.6944 -4.26779,6.1694 -5.52151,6.78482 -5.50529,6.54433 -0.80945,11.99712 2.36915,2.75104 4.57527,5.00212 4.9025,5.00239 0.32723,2.7e-4 3.37992,-1.79951 6.78375,-3.99951 z M 241,179.5 V 120 H 254.5 268 V 179.5 239 H 254.5 241 Z m -75.19679,27.10061 c -13.68849,-3.68504 -22.71019,-16.71277 -21.55339,-31.12405 1.08181,-13.47715 11.5469,-24.68277 25.00018,-26.76923 3.40412,-0.52795 3.75,-0.37192 3.75,1.69159 0,1.9132 -0.91057,2.52925 -5.75,3.89021 -14.98514,4.21415 -22.44436,20.29729 -15.86671,34.21087 1.30006,2.75 3.65817,6.21097 5.24023,7.69105 3.35116,3.13513 10.88633,6.75536 14.12648,6.78699 1.72748,0.0169 2.25,0.60254 2.25,2.52196 0,2.8041 -0.55416,2.88885 -7.19679,1.10061 z m 80.89947,-99.04293 c -15.85767,-5.65657 -23.51238,-22.802204 -17.06703,-38.228105 2.11259,-5.056121 8.10738,-11.164287 13.80089,-14.061886 6.89422,-3.508671 16.94064,-3.648364 23.82445,-0.331274 6.45087,3.108468 13.32772,10.939516 15.22912,17.342241 C 284.4538,78.891108 284.45759,83 282.5,83 c -0.90202,0 -1.5,-0.924278 -1.5,-2.318499 0,-1.275174 -0.71898,-4.762674 -1.59774,-7.75 -4.0972,-13.928453 -21.53813,-21.400967 -34.87785,-14.943317 -12.32725,5.967517 -17.78751,21.81914 -11.63073,33.765015 5.45655,10.587241 19.69511,17.015031 29.46376,13.301001 1.80503,-0.68627 2.79207,-0.57897 3.5971,0.39102 2.63519,3.17522 -11.82455,4.76184 -19.25186,2.11246 z M 294.87244,98.25 c -1.24387,-1.586056 -1.2085,-1.621426 0.37756,-0.377555 1.66575,1.306369 2.19548,2.127555 1.37244,2.127555 -0.20765,0 -0.99515,-0.7875 -1.75,-1.75 z m -45.21725,-0.708649 c -7.62626,-2.719136 -11.66814,-8.712885 -11.63874,-17.259232 0.0336,-9.776028 7.5188,-17.232375 17.33242,-17.265669 10.24014,-0.03474 16.73764,6.031473 17.48196,16.321534 l 0.4443,6.142443 -2.75668,-3.27613 C 267.30254,78.382405 263.12007,76 259.62639,76 c -3.14452,0 -8.2147,4.223571 -9.04593,7.535459 -0.75977,3.027143 1.49587,8.248167 4.97588,11.51747 1.34401,1.262635 2.44366,2.667258 2.44366,3.121385 0,1.225315 -3.97957,0.92346 -8.34481,-0.632963 z"
         id="path9" />
      <path
         style="display:inline;fill:#302a28"
         d="m 113.60301,438.16667 c -0.28327,-0.45834 0.12038,-0.83334 0.89699,-0.83334 0.77661,0 1.18026,0.375 0.89699,0.83334 C 115.11373,438.625 114.71008,439 114.5,439 c -0.21008,0 -0.61373,-0.375 -0.89699,-0.83333 z m -8.52912,-6.57764 c -0.90221,-1.08709 -0.87292,-1.58299 0.12755,-2.16033 0.71421,-0.41214 0.96496,-0.38111 0.55724,0.069 -0.40773,0.45007 -0.24013,1.42222 0.37244,2.16032 0.61257,0.73811 0.88877,1.34201 0.61377,1.34201 -0.275,0 -1.02695,-0.63494 -1.671,-1.41097 z M 82.96584,411.25 77.5,405.5 l 5.75,5.46584 c 3.1625,3.00621 5.75,5.59371 5.75,5.75 0,0.74225 -0.956222,-0.12391 -6.03416,-5.46584 z M 418,408.62244 c 0,-0.20765 0.7875,-0.99515 1.75,-1.75 1.58606,-1.24387 1.62143,-1.2085 0.37756,0.37756 C 418.82119,408.91575 418,409.44548 418,408.62244 Z M 426.5,399 c 0.99549,-1.1 2.03498,-2 2.30998,-2 0.275,0 -0.31449,0.9 -1.30998,2 -0.99549,1.1 -2.03498,2 -2.30998,2 -0.275,0 0.31449,-0.9 1.30998,-2 z M 126,346.09362 c 0,-0.49851 0.9,-0.67103 2,-0.38337 1.1,0.28766 2,0.69553 2,0.90638 0,0.21085 -0.9,0.38337 -2,0.38337 -1.1,0 -2,-0.40787 -2,-0.90638 z m 14.5,-48.51098 c -10.93272,-4.87991 -13.59303,-20.04314 -4.94706,-28.19734 5.99567,-5.65465 16.96303,-6.55337 23.9673,-1.964 3.00573,1.96943 3.08571,2.71918 0.46469,4.35604 -1.6503,1.03063 -2.54643,0.98366 -4.95034,-0.25945 -6.32747,-3.27206 -13.60505,-1.0502 -16.4928,5.03528 -4.98432,10.50368 6.24334,21.31124 16.09877,15.4964 3.40675,-2.01003 3.71832,-2.03476 5.48567,-0.43533 2.65855,2.40595 2.40839,2.94854 -2.44195,5.29655 -4.96406,2.40306 -12.63395,2.70293 -17.18428,0.67185 z M 169,282 v -17 h 12.5 12.5 v 2.5 c 0,2.48148 -0.0667,2.5 -9,2.5 h -9 v 4.5 4.5 h 8 c 7.86667,0 8,0.0417 8,2.5 0,2.45975 -0.12968,2.5 -8.05479,2.5 h -8.05479 l 0.30479,4.75 c 0.3422,5.33308 -0.47959,4.96725 11.55479,5.1437 7.03832,0.1032 7.25,0.17929 7.25,2.6063 v 2.5 h -13 -13 z m 34,0 v -17.12672 l 3.16995,0.31336 c 2.68082,0.26501 4.41673,1.88314 11.25,10.48674 4.44403,5.59536 8.41755,10.20786 8.83005,10.25 C 226.6625,285.96552 227,281.275 227,275.5 V 265 h 3.5 3.5 v 17 17 h -2.88136 c -2.45715,0 -4.11342,-1.53788 -11.25,-10.44582 -4.60275,-5.7452 -8.81864,-10.47055 -9.36864,-10.50078 -0.60521,-0.0333 -1,3.992 -1,10.19582 V 298.5 l -3.25,0.31336 -3.25,0.31336 z m 47.77746,2.75 L 250.5,270.5 245,270 c -4.85742,-0.44158 -5.50928,-0.76287 -5.5794,-2.75 -0.0789,-2.23575 0.0145,-2.25 14.75,-2.25 H 269 v 2.4501 c 0,2.28128 -0.39617,2.47076 -5.75,2.75 l -5.75,0.2999 -0.20954,13 c -0.11524,7.15 -0.22774,13.5625 -0.25,14.25 -0.023,0.71058 -1.32322,1.25 -3.013,1.25 h -2.97255 z m 24.19735,14 c -0.0138,-0.1375 -0.12635,-7.82437 -0.25,-17.08193 L 274.5,264.83615 l 10.68025,0.33192 c 8.95202,0.27822 11.13653,0.67102 13.5,2.42744 5.77054,4.28841 6.18849,14.00278 0.78531,18.25292 -1.35606,1.06668 -2.46556,2.26436 -2.46556,2.66151 0,0.39716 1.61333,2.9199 3.58517,5.60608 L 304.17034,299 h -3.58683 c -3.15858,0 -4.01572,-0.59698 -7.17898,-5 -3.37661,-4.69999 -3.85652,-5 -7.99834,-5 H 281 v 5 c 0,4.88889 -0.0667,5 -3,5 -1.65,0 -3.01133,-0.1125 -3.02519,-0.25 z m 19.57064,-17.20455 C 295.89545,280.19545 297,278.15 297,277 c 0,-1.15 -1.10455,-3.19545 -2.45455,-4.54545 -2.01589,-2.0159 -3.44556,-2.45455 -8,-2.45455 H 281 v 6.33333 c 0,3.48334 0.3,6.63334 0.66667,7 0.36666,0.36667 2.86212,0.66667 5.54545,0.66667 3.84662,0 5.39808,-0.51929 7.33333,-2.45455 z m 24.93596,16.06098 c -4.82564,-2.10266 -9.25026,-7.88221 -10.03364,-13.10619 -1.97764,-13.1878 10.26252,-23.05204 23.74198,-19.13346 20.18348,5.8675 15.49131,33.75834 -5.65164,33.59408 -2.77096,-0.0215 -6.39648,-0.63102 -8.0567,-1.35443 z m 12.84631,-4.97 C 336.77156,290.77968 339,287.03863 339,281.43518 c 0,-3.93805 -0.51136,-5.14654 -3.4,-8.03518 -7.86289,-7.86289 -20.40559,-1.73672 -19.27063,9.41227 0.6136,6.02747 5.43875,10.92822 10.95275,11.12434 0.98016,0.0349 3.25068,-0.55022 5.0456,-1.30018 z M 168,238.31341 c -5.33004,-0.88313 -15.73713,-4.58993 -20.73485,-7.38535 C 144.38598,229.31763 141.31465,228 140.43998,228 c -0.87468,0 -4.62017,1.8 -8.32332,4 -3.70315,2.2 -7.3835,4 -8.17856,4 -0.79506,0 -4.48327,-3.40105 -8.19603,-7.55789 -7.56746,-8.47258 -7.53569,-7.84368 -0.8076,-15.9856 4.65339,-5.63124 4.85086,-7.18838 1.98896,-15.6838 -2.35175,-6.98105 -3.72887,-8.33076 -9.41079,-9.2234 -2.20695,-0.34672 -5.76549,-1.09709 -7.907871,-1.6675 l -3.89523,-1.03711 0.664628,-10.14175 c 0.365545,-5.57796 1.042378,-10.5195 1.504074,-10.98119 0.461695,-0.4617 4.283589,-1.43754 8.493099,-2.16853 4.20951,-0.731 8.29584,-1.86205 9.08074,-2.51346 0.78489,-0.6514 2.80447,-4.12779 4.48795,-7.72531 l 3.06088,-6.54095 -4.50045,-7.22069 C 116.02521,133.58144 114,129.68103 114,128.88525 114,126.9156 127.68499,115 129.94711,115 c 0.99674,0 4.45389,2.0573 7.68257,4.57177 6.71145,5.22683 7.60204,5.27547 18.70045,1.02121 23.74551,-9.10215 54.79717,-3.46946 70.56677,12.80064 l 3.34366,3.44979 -6.76072,6.3283 c -10.42851,9.76149 -9.83252,9.53822 -14.59021,5.46581 -2.24571,-1.92224 -6.62708,-4.7576 -9.73637,-6.30079 -5.11286,-2.53759 -6.65697,-2.80571 -16.15326,-2.80488 -9.10322,8e-4 -11.31913,0.35026 -16.6576,2.62694 -4.05765,1.73045 -6.49474,2.28887 -7.14618,1.63743 -1.48791,-1.48791 -7.56691,1.77055 -12.81032,6.86657 -5.81165,5.64827 -10.2503,15.0793 -11.03083,23.43776 -1.1993,12.84298 5.09251,26.8991 15.05967,33.64383 4.33985,2.93675 7.50884,3.55902 6.04255,1.18652 -0.31643,-0.51199 -0.12532,-0.9309 0.42468,-0.9309 0.55,0 1.2834,0.45856 1.62978,1.01902 1.10661,1.79052 9.8113,5.69468 15.28747,6.8566 13.48915,2.8621 26.3173,-0.66568 35.97428,-9.89305 l 3.27351,-3.12787 8.44046,7.66283 c 9.68125,8.78931 9.68776,8.91623 0.80176,15.6303 -11.78103,8.90148 -24.82218,12.92659 -41.19919,12.71599 C 175.26552,238.78892 169.375,238.54124 168,238.31341 Z m -30.18817,-15.51874 c 1.98594,-1.00683 3.36272,-0.65206 9.76655,2.51664 4.10009,2.02878 7.67226,3.68869 7.93816,3.68869 0.2659,0 0.48346,-2.81327 0.48346,-6.25172 v -6.25171 l -4.47264,-2.37273 c -6.00033,-3.18317 -14.09369,-11.92196 -17.01433,-18.3712 -9.48435,-20.94293 -1.18691,-45.44483 18.92001,-55.86977 l 6.40732,-3.32204 0.37939,-5.53041 c 0.20866,-3.04173 0.25292,-5.70958 0.0983,-5.92856 -0.15457,-0.21897 -2.87688,0.61331 -6.04957,1.84953 -9.57461,3.73067 -10.10619,3.68769 -16.76853,-1.35591 -3.3,-2.4982 -6.36648,-4.55418 -6.81441,-4.56883 -1.08397,-0.0355 -10.68447,8.26182 -10.6851,9.23466 -2.7e-4,0.41872 1.79951,3.39831 3.99951,6.62131 2.2,3.223 4,6.8279 4,8.01089 0,2.41734 -7.65383,18.22612 -9.34423,19.30024 -0.60048,0.38157 -3.90191,0.99469 -7.33651,1.36251 -3.4346,0.36781 -6.90005,1.18062 -7.70101,1.80625 -0.93493,0.73025 -1.57479,3.46379 -1.78727,7.63535 l -0.33098,6.49785 5.5,1.26354 c 12.31096,2.82823 11.1595,1.90731 14.72423,11.77619 1.78094,4.93051 3.24656,9.86775 3.25692,10.97165 0.0104,1.1039 -2.00615,4.47571 -4.48115,7.49291 -2.475,3.0172 -4.5,5.94674 -4.5,6.51008 0,0.56335 2.04509,3.36212 4.54465,6.21949 l 4.54466,5.19523 5.20534,-3.47904 c 2.86294,-1.91347 6.24568,-4.00646 7.51718,-4.65109 z m 27.1817,-16.72901 C 152.84746,202.37099 144.70444,191.36414 144.60006,178.5 c -0.11908,-14.67678 10.21012,-27.27866 23.89674,-29.15462 4.04751,-0.55477 4.5032,-0.41402 4.5032,1.39089 0,1.58576 -0.88417,2.1495 -4.20382,2.68033 -12.01419,1.92115 -22.23693,15.98522 -20.25802,27.87025 1.83934,11.04675 12.41963,21.61698 21.71184,21.69119 2.07601,0.0166 2.75,0.51213 2.75,2.02196 0,2.16131 -3.06391,2.56912 -8.00647,1.06566 z M 417,90.5 c -2.42903,-2.475 -4.19142,-4.5 -3.91642,-4.5 0.275,0 2.48739,2.025 4.91642,4.5 2.42903,2.475 4.19142,4.5 3.91642,4.5 -0.275,0 -2.48739,-2.025 -4.91642,-4.5 z M 80.582598,92.133647 c -0.294489,-0.476494 0.466453,-1.713994 1.690983,-2.75 2.220595,-1.87872 2.221836,-1.878203 0.474237,0.197505 -0.9637,1.144633 -1.4512,2.382133 -1.083333,2.75 C 82.032352,92.699018 82.059891,93 81.725684,93 81.391476,93 80.877088,92.610141 80.582598,92.133647 Z"
         id="path8" />
    </g>
  </g>
</svg>
