<?xml version="1.0" encoding="UTF-8" standalone="no"?>
<!-- Created with Inkscape (http://www.inkscape.org/) -->

<svg
   version="1.1"
   id="svg1"
   width="574"
   height="245"
   viewBox="0 0 574 245"
   xmlns="http://www.w3.org/2000/svg"
   xmlns:svg="http://www.w3.org/2000/svg">
  <defs
     id="defs1">
    <clipPath
       clipPathUnits="userSpaceOnUse"
       id="clipPath193">
      <path
         id="path194"
         style="fill:#ff0000;fill-opacity:1;fill-rule:nonzero;stroke:none"
         d="M 7.9648438,21.419922 V 226.76367 H 567.85938 v -21.60351 c -2.34612,3.68988 -5.27039,7.0107 -8.5625,9.87109 -2.07285,1.09139 -3.8827,3.45058 -6.21876,3.27539 -5.23525,-0.3926 -11.19749,-1.22499 -14.98046,-4.86523 -0.5583,-0.53723 -1.01819,-1.08009 -1.42383,-1.625 -0.9059,0.60135 -1.83835,1.18022 -2.83985,1.70898 -2.92833,1.44688 -5.90835,2.8066 -9.03906,3.76172 -1.48027,0.53627 -2.79529,1.45956 -4.17578,2.22266 -1.12673,1.36106 -2.54635,3.02618 -2.97266,2.73632 -22.53744,-15.32428 -24.75109,-9.61583 -19.64257,-19.28906 1.25531,-1.85799 2.20666,-3.18686 3.98437,-4.70312 0.17002,-0.14501 0.34773,-0.26993 0.52149,-0.4043 0.94964,-0.96772 1.95782,-1.86386 3.04101,-2.66016 -0.036,-0.35354 -0.0775,-0.70769 -0.10156,-1.06054 -0.28619,-2.49564 -0.56902,-4.99259 -0.91406,-7.48047 -0.72142,-3.87111 -2.01468,-7.6276 -2.4375,-11.5586 -0.40871,-3.19353 -0.56899,-3.77897 -0.58789,-7.27343 -0.0196,-3.61658 0.69815,-7.2288 1.33007,-10.76953 0.27155,-1.02835 0.473,-2.0793 0.81641,-3.08594 1.32974,-3.89798 3.51151,-7.34328 6.70508,-9.96289 v -0.002 c 4.47608,-3.67162 6.86315,-4.12058 8.04883,-2.69921 1.80642,-1.73257 2.81209,-2.81339 5.21679,-4.17383 3.12469,-1.76776 6.54697,-2.76466 10.07032,-2.68946 1.17444,0.0251 2.35898,0.16887 3.54882,0.44336 1.76996,0.40833 3.33626,1.44014 5.00391,2.16016 1.18144,1.01527 2.48267,1.90373 3.54297,3.04492 0.39093,0.42076 0.7454,0.86501 1.08008,1.32031 1.51241,-2.15496 3.17824,-3.86098 4.75,-3.81054 9.57412,0.3072 13.85403,0.60509 16.23633,2.06445 V 21.419922 Z M 238.48438,31.279297 c 1.52269,-0.02125 3.14183,0.06025 4.85742,0.259765 0.88011,0.102355 1.96718,0.225885 2.81445,0.345704 6.8074,0.962682 13.62749,1.31131 20.49219,1.683593 15.75229,0.711637 31.51007,1.317894 47.26758,1.900391 18.21987,0.673521 23.89112,13.01668 17.76367,21.064453 1.25728,2.193463 1.6817,4.584607 1.37304,6.917969 0.68258,-0.03692 1.3795,-0.06055 2.09961,-0.06055 h 18.39258 3.9336 c 17.76412,0 24.10568,11.533574 19.03125,19.773437 h 26.50976 c 2.93283,-3.547886 8.27251,-6.32648 16.2207,-7.013671 8.2664,-0.714703 16.54674,-1.275798 24.83008,-1.753907 9.84534,-0.606164 19.72086,-0.442525 29.55664,-1.193359 0.86107,-0.06573 1.69664,-0.102564 2.50782,-0.111328 16.38901,-0.177067 22.56054,10.921912 17.48632,19.212891 9.40582,-0.157568 18.81065,-0.388656 28.20703,-0.839844 3.33678,-0.173992 6.66975,-0.394645 10.00391,-0.611328 0.86176,-0.056 1.69845,-0.08223 2.50977,-0.08203 25.15092,0.0063 26.01523,26.203957 -0.69922,27.939457 -3.4935,0.22696 -6.98613,0.45593 -10.48242,0.63672 -9.94672,0.47271 -19.90065,0.72998 -29.85743,0.89453 -2.97332,3.71025 -8.38978,6.68982 -16.40429,7.55859 -1.90734,0.20675 -3.81192,0.43331 -5.70703,0.73438 -2.85449,0.49988 -5.59366,1.45292 -8.41602,2.09765 -4.27617,0.81011 -8.60285,1.54645 -12.97266,1.33789 -3.42325,-0.0336 -6.84771,-0.0824 -10.26953,-0.1914 -3.61375,-0.12232 -7.22469,-0.29595 -10.83398,-0.51368 -3.84943,-0.11224 -7.69692,-0.27139 -11.53906,-0.53906 -2.9305,-0.20628 -5.86158,-0.41037 -8.79688,-0.54101 -3.22138,-0.0563 -6.443,-0.13164 -9.6582,-0.35157 -2.92247,-0.20326 -5.83567,-0.53551 -8.76172,-0.66796 -3.71041,-0.11612 -7.42535,0.0313 -11.13672,0.0293 -2.5165,0.0388 -5.03964,0.0436 -7.54687,0.28711 -1.39216,0.15327 -2.71009,0.5081 -4.0293,1.00196 -2.82408,0.81147 -5.68231,1.52472 -8.58399,2 -2.8118,0.41921 -5.65476,0.69889 -8.50195,0.57226 -2.86754,-0.11089 -5.73296,-0.2764 -8.5918,-0.5293 -5.74847,-0.50065 -11.48338,-1.13307 -17.22461,-1.70898 -4.85412,-0.43417 -9.71155,-1.02128 -14.58593,-1.13086 -6.08894,-0.13688 -10.83292,-1.58413 -14.23828,-3.75195 -2.45161,2.28571 -5.81033,4.34311 -10.1836,5.91406 -0.008,0.003 -0.017,0.005 -0.0254,0.008 -3.4435,2.86329 -8.81075,4.8086 -16.10547,4.8086 h -1.31836 c -0.27542,0.0443 -0.54333,0.12417 -0.82031,0.1621 -0.42334,0.058 -0.84675,0.10555 -1.27148,0.15235 -0.0709,0.007 -0.27335,0.0499 -0.21485,0.01 0.0811,-0.0563 0.19452,-0.0411 0.29102,-0.0625 0.35831,-0.0795 0.58798,-0.17774 0.91601,-0.26171 h -1.85937 c -11.09978,0 -17.73696,-4.5053 -19.91992,-9.89454 -0.25462,-10e-4 -0.50904,0.009 -0.76367,0.008 -24.08103,-0.14612 -27.16831,-21.34277 -9.2793,-26.69336 -5.15999,-3.677 -6.82751,-8.8593 -5.32031,-13.416019 -10.52758,-4.632639 -11.98937,-15.167582 -4.31446,-21.1875 -4.23148,-4.441244 -4.71563,-10.175289 -1.54883,-14.605469 -6.24124,-8.295525 -0.8517,-19.380408 14.71876,-19.597656 z M 523.28516,155.91016 c -0.056,-0.12373 0.0396,0.2747 0.10351,0.39453 0.0618,0.11583 0.12464,0.23263 0.18555,0.34961 -0.096,-0.24821 -0.17953,-0.50232 -0.28906,-0.74414 z m -22.20118,43.48046 c -0.32897,0.17707 -0.63804,0.66911 -0.94336,1.10743 0.0139,-0.0161 0.0292,-0.0328 0.043,-0.0488 0.29532,-0.35841 0.596,-0.71029 0.90039,-1.0586 z m 61.3379,8.45899 c -0.0622,0.20148 0.009,-0.0431 -0.0762,0.23633 -0.019,0.0625 0.0959,-0.11158 0.084,-0.17578 -0.004,-0.0196 -0.004,-0.0409 -0.008,-0.0605 z M 519.14844,219.125 c -0.027,0.007 -0.053,0.0169 -0.0801,0.0234 0.0239,-0.006 0.0403,-0.0105 0.0606,-0.0156 0.0127,-0.005 0.007,-0.003 0.0195,-0.008 z" />
    </clipPath>
  </defs>
  <g
     id="g1">
    <g
       id="g131"
       transform="matrix(1.0190962,0,0,1.0190962,-4.731702,-0.40903959)">
      <path
         style="display:inline;fill:#3697d1"
         d="M 93.659748,226.00944 C 37.085327,215.84684 -1.4206651,160.19704 9.9626955,105.04841 26.521288,24.827488 122.93269,-6.0822979 182.20089,49.828323 c 31.36833,29.591292 41.09324,73.657997 24.91396,112.893167 -3.99663,9.69193 -9.84019,19.96874 -13.92633,24.4916 l -3.36814,3.72813 -13.66019,-12.33516 c -31.79718,-28.71289 -41.67572,-37.78102 -41.93413,-38.49394 -0.15067,-0.41567 4.45478,-4.758 10.23433,-9.64961 5.77955,-4.89161 10.17783,-9.21548 9.77394,-9.60859 C 152.14535,118.82068 60.374871,77.272037 59.611386,78.013845 58.616493,78.980489 57.782225,76.652456 79.49525,133.5 c 8.613014,22.55 15.964908,41.31732 16.337542,41.70515 0.372634,0.38784 5.088678,-4.4785 10.480108,-10.81408 5.39142,-6.33558 10.14571,-11.3779 10.56507,-11.20516 0.41937,0.17275 12.33634,12.86037 26.48216,28.19472 l 25.71967,27.88062 -3.59014,2.43956 c -6.09214,4.13972 -19.59601,10.11242 -27.98966,12.37969 -8.90373,2.40507 -34.83749,3.54613 -43.840252,1.92894 z M 329.5,223.60769 c -7.67846,-2.41588 -12.48584,-6.9776 -12.49626,-11.85769 -0.005,-2.43528 11.4109,-2.47365 16.48202,-0.0554 4.68245,2.2329 6.59777,0.49151 7.28109,-6.61993 C 341.31058,199.4159 340.03208,198.6234 335,201.5 c -14.12661,8.0755 -24.63711,-13.87177 -16.44643,-34.34227 3.4294,-8.57092 9.39259,-11.04072 15.93596,-6.60027 C 338.38812,163.20311 341,163.19265 341,160.53138 341,159.29233 342.43169,159 348.5,159 h 7.5 l -0.006,24.75 c -0.003,15.01192 -0.44122,26.31923 -1.1128,28.73831 -2.63705,9.49883 -14.29703,14.60693 -25.38162,11.11938 z M 339.77487,188 c 1.68739,-3.18393 1.02095,-14.87188 -0.91984,-16.1318 -4.02304,-2.61167 -5.34237,-0.73173 -5.64816,8.04821 -0.16122,4.62903 -0.0507,9.04809 0.24553,9.82014 0.83024,2.16358 4.83904,1.06252 6.32247,-1.73655 z m 165.26031,15.06574 c -3.21189,-6.00148 4.75287,-11.37124 8.46445,-5.70664 1.56074,2.38198 1.14642,5.45605 -0.92669,6.87559 -2.13381,1.4611 -6.4919,0.78526 -7.53776,-1.16895 z M 521,203 c -5.47573,-5.47573 -1.29789,-12.13383 8.03747,-12.80909 4.24858,-0.30732 5.96253,-0.83504 5.96253,-1.83585 0,-1.64823 -4.54688,-3.60377 -6.88208,-2.95987 -0.88986,0.24536 -2.55524,0.71329 -3.70086,1.03983 C 522.62776,186.94503 520,184.03934 520,181.55077 520,180.56777 526.88312,179 531.19888,179 541.34039,179 544,182.54176 544,196.04705 V 205 h -4 c -3.05538,0 -4,-0.39084 -4,-1.65499 0,-1.53998 -0.12708,-1.53998 -1.82874,0 C 531.48899,205.77243 523.56486,205.56486 521,203 Z m 13.10382,-4.59396 C 536.31598,196.40406 535.4868,194 532.58414,194 c -3.15984,0 -6.03795,2.37501 -5.278,4.35539 0.80361,2.09418 4.5091,2.12179 6.79768,0.0506 z M 551,192 v -13 h 4 c 2.81571,0 4,0.42655 4,1.4407 0,1.25277 0.35872,1.25357 2.75,0.006 4.875,-2.54304 6.41308,-1.95852 6.06037,2.30314 -0.26913,3.25166 -0.67437,3.79191 -3.04945,4.06537 C 560.58945,187.29566 559,190.44291 559,198.22251 V 205 h -4 -4 z m -117.10876,10.50203 c -9.05409,-4.92102 -10.48045,-30.70618 -2.24028,-40.49906 4.36838,-5.19154 13.05228,-4.65353 16.60076,1.02849 1.84857,2.96003 3.74828,2.41506 3.74828,-1.07527 v -3.04381 l 7.25,0.29381 7.25,0.29381 0.26989,21.25 0.26989,21.25 H 459.51989 452 v -2.33333 c 0,-3.51356 -1.04785,-3.87556 -3.22105,-1.11278 -3.98103,5.06106 -9.93498,6.64001 -14.88771,3.94814 z M 449.7868,180.69512 449.5,171.5 h -2.47047 c -3.62401,0 -5.18123,3.71574 -4.76541,11.37089 0.3896,7.17233 2.40477,9.91186 5.91082,8.03548 1.68842,-0.90361 1.8669,-2.03432 1.61186,-10.21125 z M 238,171.15198 V 139 h 4.92764 c 27.39155,0 37.44295,8.83801 37.53063,33 0.0469,12.91695 -1.78431,18.16229 -8.61898,24.68867 -4.75091,4.53661 -7.7704,5.38068 -21.58929,6.03513 L 238,203.30395 Z m 22.3307,14.80253 C 268.56742,179.47551 265.40068,155 256.32569,155 H 254 v 16.5 c 0,18.26058 0.38232,19.13351 6.3307,14.45451 z M 291,180.95619 v -22.04381 l 7.25,0.29381 7.25,0.29381 0.2695,21.75 0.2695,21.75 H 298.5195 291 Z m 187,-11.5 v -33.54381 l 7.25,0.29381 7.25,0.29381 0.26348,33.25 0.26348,33.25 H 485.51348 478 Z m -110,10.99812 v -21.54569 l 6.75,0.29569 6.75,0.29569 0.26989,21.25 0.26989,21.25 H 375.01989 368 Z m 30,6.52094 V 171.9505 L 395.5,171 c -3.61048,-1.3727 -3.62094,-8.72682 -0.0173,-12.14504 2.02827,-1.92389 2.48589,-3.32399 2.5,-7.64877 l 0.0173,-5.29381 7.25,0.29381 7.25,0.29381 0.15811,3 c 0.087,1.65 0.19946,4.4625 0.25,6.25 0.0785,2.7755 0.45689,3.25 2.59189,3.25 h 2.5 v 6 6 h -2.5 -2.5 v 15.5 15.5 h -7.5 -7.5 z m 113.45455,-18.4298 c -5.8614,-5.86139 2.29904,-15.1022 9.00581,-10.19809 2.37576,1.7372 0.3798,3.17265 -2.36725,1.70247 -2.62629,-1.40555 -4.98093,-0.34496 -5.71341,2.57346 -0.94395,3.76101 1.31053,5.68186 5.82204,4.96044 4.08852,-0.65378 5.10603,0.646 1.864,2.38109 -3.12812,1.67412 -5.98931,1.20252 -8.61119,-1.41937 z m 15,0 c -6.23549,-6.23548 2.71409,-15.27823 9.60133,-9.70128 4.80995,3.89485 1.60764,12.15583 -4.71212,12.15583 -1.33907,0 -3.53921,-1.10455 -4.88921,-2.45455 z M 534.8,166.8 c 2.91375,-2.91375 -0.74694,-8.58639 -4.72601,-7.32348 -2.52873,0.80259 -3.75788,4.99452 -2.06321,7.03647 1.48612,1.79067 5.13146,1.94477 6.78922,0.28701 z m 7.2,-2.71746 v -6.91746 l 5.75,0.37854 c 3.1625,0.20819 6.2,0.40356 6.75,0.43415 0.55,0.0306 2.38993,-0.21731 4.08874,-0.5509 4.58484,-0.90032 6.41126,1.44361 6.41126,8.22789 0,6.78329 -2.33124,7.02077 -2.81875,0.28714 C 561.4926,156.43028 555,156.99944 555,166.57143 555,169.84127 554.60753,171 553.5,171 c -1.12831,0 -1.5,-1.20862 -1.5,-4.87756 0,-5.73903 -1.71635,-7.87979 -4.93608,-6.15665 C 545.40415,160.85407 545,162.04257 545,166.03518 545,169.78169 544.63192,171 543.5,171 c -1.18877,0 -1.5,-1.43527 -1.5,-6.91746 z M 295.357,152.00842 c -6.53644,-2.63778 -7.34469,-12.41207 -1.28548,-15.54541 7.92817,-4.09981 15.78967,2.14677 12.52755,9.95413 -2.30173,5.5088 -6.39801,7.5461 -11.24207,5.59128 z m 75.39866,-0.76321 c -4.28229,-2.65515 -6.19715,-7.49079 -4.36741,-11.02911 2.94811,-5.70101 10.15554,-6.82615 14.68867,-2.29302 7.24999,7.24999 -1.62956,18.71124 -10.32126,13.32213 z M 267.32689,127.3132 c -5.60808,-1.11523 -9.04881,-8.11474 -7.22892,-14.70586 1.2923,-4.6803 3.63898,-6.09954 13.37306,-8.08787 9.28343,-1.89627 8.95278,-1.69474 8.13384,-4.95767 -0.82346,-3.280915 -4.41736,-4.179406 -10.81262,-2.703203 C 263.5315,98.534579 263,98.406119 263,94.975249 c 0,-3.69334 2.20089,-4.725391 11.81186,-5.538877 5.31805,-0.450127 7.39057,-0.194312 10.11706,1.248767 6.46764,3.423204 7.22724,5.486416 7.80395,21.197081 L 293.25111,126 h -5.00892 c -4.24891,0 -5.09233,-0.31893 -5.5586,-2.10196 l -0.54968,-2.10196 -3.31695,2.49245 c -3.47473,2.61101 -7.8192,3.75466 -11.49007,3.02467 z m 13.11641,-9.53571 C 281.29948,116.55512 282,114.01895 282,112.14157 v -3.41342 l -4.58293,0.62816 c -5.60557,0.76833 -6.28436,1.16443 -7.50717,4.38068 -2.08373,5.4806 7.06631,8.99046 10.5334,4.0405 z M 319,127.11827 C 305.65802,124.25241 297.86625,113.12123 299.33898,99.0309 301.08512,82.324792 310.53397,74.67811 328.76903,75.214017 L 338.5,75.5 l 0.30856,4.842318 0.30856,4.842317 -3.30856,-0.731028 c -14.38019,-3.177312 -23.73487,2.379505 -24.62063,14.625025 -1.0229,14.141408 6.47334,20.578128 21.13851,18.150808 7.20139,-1.19195 7.57074,-0.97381 6.92534,4.08999 -0.35785,2.80766 -1.09322,4.04999 -2.77603,4.68979 -3.4663,1.31789 -13.53018,1.95656 -17.47575,1.10905 z m 54.32098,-0.73156 c -10.8433,-5.34746 -6.80218,-18.79352 6.41902,-21.35802 10.30666,-1.99917 12.37308,-3.8064 8.43126,-7.373702 C 385.89886,95.598491 381.54653,95.543069 376,97.5 c -5.37454,1.896249 -5,2.006885 -5,-1.476947 0,-8.274455 19.89737,-9.687469 26.46727,-1.879576 L 400,97.153451 V 111.57673 126 h -4.5 c -3.33333,0 -4.5,-0.38889 -4.5,-1.5 0,-1.91815 0.14803,-1.94199 -6.1507,0.99023 -6.25092,2.90996 -7.28276,2.9902 -11.52832,0.89648 z M 388.19301,118.25 c 2.14337,-2.49562 2.95053,-5.22239 2.22374,-7.51228 C 389.17887,106.83749 377,110.45301 377,114.72073 c 0,5.06463 7.77017,7.51465 11.19301,3.52927 z M 415.5,127.56458 c -0.55,-0.2143 -2.2375,-0.66257 -3.75,-0.99616 -2.34624,-0.51747 -2.75,-1.10907 -2.75,-4.02929 v -3.42277 l 6.75,0.5338 c 12.73481,1.00707 13.50016,-3.37347 1.53942,-8.81094 C 410.36894,107.69311 409,105.93646 409,100.20211 c 0,-8.167955 9.92525,-12.96706 21.875,-10.57711 2.75926,0.551852 3.125,1.02 3.125,4 V 97 h -6.3 c -10.57489,0 -11.15034,3.52502 -1.30137,7.97172 9.62861,4.34721 12.48016,9.98575 8.28669,16.38579 -2.80064,4.27432 -14.46245,8.04729 -19.18532,6.20707 z m 39.86468,-0.47547 C 446.90957,124.95976 442.82353,119.06614 442.82353,109 c 0,-7.61392 1.52766,-11.434827 6.11515,-15.294948 C 460.8185,83.708844 477,90.741687 477,105.90113 V 111 h -12 -12 v 2.04545 c 0,1.125 1.16603,3.21149 2.59119,4.63665 l 2.59119,2.59119 7.90881,-0.54209 L 474,119.18912 v 2.93019 c 0,4.20958 -10.517,7.01433 -18.63532,4.9698 z m 12.24231,-23.6709 C 467.27314,102.54823 467,101.42323 467,100.91821 467,96.411075 459.16905,94.740041 455.45455,98.454545 450.61984,103.28925 451.9665,105 460.60699,105 c 6.52574,0 7.52071,-0.22483 7,-1.58179 z M 240.23367,99.25 240.5,72.5 h 5 5 l 0.26633,26.75 0.26634,26.75 H 245.5 239.96733 Z M 349,99 V 72 h 5 5 v 27 27 h -5 -5 z M 242.56051,54.605386 C 239.49286,44.548126 239.52054,45 241.97207,45 c 1.53309,0 2.33277,1.240788 3.59251,5.574152 1.82295,6.270713 2.27763,6.230962 4.51668,-0.394868 2.36648,-7.002966 5.01299,-6.893965 7.28065,0.299868 1.53062,4.855685 3.62731,6.703888 3.64367,3.211831 0.003,-0.655041 0.47422,-2.878483 1.047,-4.940983 L 263.09401,45 h 4.88128 4.88128 l 1.23084,5.5 c 1.54693,6.912389 2.36766,6.9045 4.55792,-0.04381 2.36316,-7.4968 5.1566,-7.384946 7.3376,0.29381 0.82013,2.8875 1.77685,5.25 2.12604,5.25 0.34919,0 1.28993,-2.3625 2.09054,-5.25 1.14978,-4.146829 1.93176,-5.319717 3.72142,-5.581783 1.79261,-0.262499 2.15407,0.05074 1.73093,1.5 C 290.9885,62.640246 290.8323,63 288.56093,63 c -1.87475,0 -2.54371,-0.988967 -4.06287,-6.006402 -2.07457,-6.85183 -2.41607,-6.82806 -4.54377,0.316268 -1.31297,4.408625 -1.91223,5.190134 -3.97978,5.190134 -2.18507,0 -2.68341,-0.843921 -4.87172,-8.25 -1.34072,-4.5375 -2.74484,-8.25 -3.12027,-8.25 -0.37544,0 -1.79023,3.7125 -3.144,8.25 -2.19637,7.361741 -2.72012,8.25 -4.86445,8.25 -2.02827,0 -2.64742,-0.810695 -3.96976,-5.197863 -2.15104,-7.136532 -2.42925,-7.155597 -4.50237,-0.308539 C 249.9714,62.048619 249.32202,63 247.40219,63 c -1.99037,0 -2.60756,-1.070089 -4.84168,-8.394614 z M 300.28171,56.25 c -3.8088,-12.173257 -3.72801,-11.452249 -1.2417,-11.081783 1.72489,0.257011 2.61551,1.571281 3.95193,5.831783 1.80057,5.740154 1.89627,5.707088 4.34148,-1.5 2.13553,-6.294345 4.85235,-5.924355 7.02125,0.95619 2.19026,6.94831 3.01099,6.956199 4.55792,0.04381 1.06412,-4.754995 1.54879,-5.5 3.57812,-5.5 h 2.34728 l -2.51075,8.25 c -2.80664,9.222255 -3.3409,10.0866 -5.92681,9.5886 -1.20338,-0.231751 -2.33067,-2.090486 -3.35622,-5.533914 -2.13594,-7.17179 -2.52914,-7.201076 -4.45653,-0.331932 -2.49279,8.884248 -5.37868,8.633129 -8.30597,-0.722754 z"
         id="path132"
         clip-path="url(#clipPath193)" />
      <path
         style="display:inline;fill:#15384a"
         d="m 505.66724,202.93531 c -2.9696,-4.23971 1.22979,-9.21452 5.95925,-7.05963 2.62608,1.19652 3.30652,5.79131 1.17351,7.92432 -1.86245,1.86245 -5.53439,1.4173 -7.13276,-0.86469 z m 15.96762,-0.008 c -3.2009,-2.51783 -3.51761,-7.04467 -0.69064,-9.87164 1.90838,-1.90838 5.09257,-2.7789 12.05578,-3.29591 l 3.5,-0.25987 -2.36257,-2.36257 c -2.33139,-2.33139 -5.51911,-2.54492 -10.20931,-0.68387 -1.06723,0.42347 -1.9506,-0.20748 -2.75152,-1.96531 -1.1074,-2.43048 -0.96718,-2.67781 2.28976,-4.03864 7.61775,-3.1829 17.37355,-0.63107 19.55857,5.11595 C 543.56122,186.97611 544,191.9259 544,196.5651 V 205 h -4 c -2.95365,0 -4,-0.40722 -4,-1.5567 0,-1.40894 -0.21096,-1.40894 -2.22251,0 -3.15889,2.21257 -8.98884,1.96489 -12.14263,-0.51588 z m 13.32996,-4.86168 C 536.63014,194.95405 536.18828,194 533.08179,194 c -5.20349,0 -7.99707,2.75138 -5.41512,5.33333 1.45977,1.45978 6.28724,0.62131 7.29815,-1.26759 z M 551,192 v -13 h 4 c 2.88889,0 4,0.41667 4,1.5 0,1.86637 0.94304,1.85765 3.44113,-0.0318 3.50729,-2.65279 5.51394,-1.89304 5.36639,2.0318 -0.0969,2.57845 -0.58001,3.5 -1.83469,3.5 C 561.25935,186 559,189.74976 559,197.57258 V 205 h -4 -4 z m -39.31065,-23.23643 c -3.82863,-2.80265 -2.0466,-9.95512 2.78227,-11.16709 2.78368,-0.69866 7.91095,0.9755 7.08423,2.31315 -0.33245,0.53792 -1.76297,0.46101 -3.48001,-0.1871 -3.7135,-1.40169 -6.07584,0.31737 -6.07584,4.42135 0,3.70877 3.57958,5.68667 6.98921,3.8619 1.82065,-0.97439 2.15891,-0.94673 1.79919,0.14711 -0.60172,1.82975 -6.85994,2.24977 -9.09905,0.61068 z m 14.26643,-0.31685 c -3.88365,-4.67951 0.54951,-12.18458 6.50685,-11.01572 5.36534,1.0527 7.5385,7.44803 3.70863,10.91401 -2.31384,2.094 -8.51082,2.15569 -10.21548,0.10171 z m 8.50775,-1.40643 c 2.41491,-2.66843 1.33702,-6.80126 -1.99175,-7.63673 C 529.2281,158.58945 527,160.49073 527,164.07275 c 0,4.5783 4.4166,6.33437 7.46353,2.96754 z M 542,164.05902 c 0,-5.62496 1.10452,-8.31695 2.49159,-6.07263 0.42376,0.68567 1.29387,0.66361 2.65983,-0.0674 1.47857,-0.7913 2.7957,-0.76929 4.84858,0.081 2.04944,0.84891 3.37111,0.87176 4.84353,0.0837 2.84287,-1.52146 3.87191,-1.3683 6.15647,0.91626 2.5024,2.5024 2.90374,11 0.51953,11 -1.07786,0 -1.37869,-0.87413 -1.10622,-3.21429 C 562.91145,162.50729 561.47508,159 559.22475,159 556.3124,159 555,161.08132 555,165.7 c 0,3.15556 -0.39922,4.3 -1.5,4.3 -1.1306,0 -1.5,-1.21473 -1.5,-4.93261 0,-4.09288 -0.34865,-5.04327 -2.04799,-5.58262 C 546.79659,158.48328 545,160.71002 545,165.62244 545,168.84694 544.6049,170 543.5,170 c -1.16501,0 -1.5,-1.32678 -1.5,-5.94098 z M 417.5,127.44809 c -0.55,-0.15637 -2.6875,-0.56655 -4.75,-0.91151 -3.50481,-0.5862 -3.75,-0.8575 -3.75,-4.14928 0,-2.87182 0.32309,-3.43284 1.75,-3.03875 6.31381,1.7438 11.00807,1.66794 13.33399,-0.21548 l 2.39863,-1.94229 -1.99131,-2.2122 c -1.09522,-1.21671 -4.42,-3.28914 -7.38839,-4.60541 -6.5296,-2.89539 -8.02955,-4.69807 -8.07112,-9.70009 -0.0626,-7.535113 8.37974,-12.347364 19.39114,-11.053192 L 434,90.275363 v 3.423591 3.423592 l -4.48719,-0.672896 c -12.70493,-1.905222 -13.91281,4.08196 -1.92051,9.51953 8.59957,3.89923 11.11405,10.32053 6.39206,16.32357 -2.46479,3.13347 -12.52718,6.2804 -16.48436,5.15534 z M 262.92308,124.07692 C 260.52977,121.68362 260,120.31039 260,116.5 c 0,-6.97364 3.16739,-9.66232 13.91125,-11.80875 9.93375,-1.98458 9.63553,-1.78226 7.90878,-5.36547 -1.47114,-3.05279 -7.12396,-3.831204 -14.48346,-1.994424 -2.72894,0.681086 -3.25811,0.491213 -3.85278,-1.382422 -1.00119,-3.154478 1.14106,-4.718181 7.90845,-5.772658 16.97212,-2.644549 20.59836,1.240352 20.60402,22.073724 L 292,126 h -4.5 c -3.83333,0 -4.5,-0.2963 -4.5,-2 0,-2.55435 -0.34307,-2.5185 -4.78519,0.5 -5.33298,3.62385 -11.41302,3.45563 -15.29173,-0.42308 z m 17.64602,-6.15328 c 0.93425,-1.03233 1.7509,-3.57497 1.81477,-5.6503 L 282.5,108.5 l -4,0.35315 c -4.84743,0.42797 -7.1057,1.54157 -8.53248,4.20754 -3.18149,5.94466 5.86661,10.09503 10.60158,4.86295 z m 31.30219,6.27778 C 299.81545,117.90338 295.82401,102.31273 302.64853,88.177189 307.29814,78.546535 316.06328,74.526663 331,75.174639 l 7.5,0.325361 0.3102,4.882373 0.31019,4.882374 -2.31019,-0.632908 c -15.83339,-4.337757 -26.1252,2.153466 -26.13837,16.485921 -0.0124,13.48597 9.27413,19.51763 24.57817,15.96369 l 3.75,-0.87083 v 4.29687 C 339,125.85715 336.52947,127 324.96497,127 c -6.52966,0 -8.57231,-0.43659 -13.09368,-2.79858 z m 59.66685,0.54858 c -5.08376,-4.44492 -4.96821,-12.92574 0.22528,-16.53443 1.50512,-1.04583 5.66158,-2.48916 9.23658,-3.20741 10.35464,-2.08033 11.72626,-3.2819 8,-7.00816 -2.27867,-2.278669 -7.82438,-2.654387 -12.92654,-0.875764 -3.83302,1.336199 -5.6103,0.14255 -4.58723,-3.080857 0.94055,-2.963399 4.75104,-4.220937 13.02802,-4.299507 13.3072,-0.126321 15.47672,3.027493 15.48201,22.506128 L 400,126 h -4.5 c -3.33333,0 -4.5,-0.38889 -4.5,-1.5 0,-2.04666 -1.91794,-1.87231 -5.5,0.5 -4.17907,2.76769 -10.64282,2.65195 -13.96186,-0.25 z m 14.80454,-4.86027 C 389.06877,118.64764 391,115.1492 391,111.45295 c 0,-3.9113 -10.49204,-3.16074 -13.23469,0.94675 -3.31127,4.9591 2.6696,10.18179 8.57737,7.49003 z m 63.98639,4.59128 c -5.6319,-3.37578 -7.80659,-8.94329 -7.0713,-18.10349 C 445.09201,83.526673 477,83.612126 477,106.46788 V 111 h -12 -12 v 2.04545 c 0,4.81222 4.4047,7.15587 12.79107,6.80588 L 473.5,119.52961 v 2.45566 c 0,5.52024 -15.3642,7.17512 -23.17093,2.49574 z M 467.99626,103.75 C 467.98659,100.51722 463.99587,96 461.14956,96 457.32737,96 453,99.490002 453,102.57258 V 105 h 7.5 c 5.33533,0 7.49892,-0.36078 7.49626,-1.25 z M 241,99.5 V 73 h 4.5 4.5 V 99.5 126 h -4.5 -4.5 z m 108,0 V 73 h 5 5 V 99.5 126 h -5 -5 z M 242.96201,54.87244 c -1.16747,-3.920158 -2.35967,-7.745158 -2.64933,-8.5 C 239.97238,45.485641 240.50774,45 241.82562,45 c 1.12178,0 2.26814,0.7875 2.54747,1.75 0.27933,0.9625 1.01741,3.719742 1.64019,6.127204 1.3141,5.079951 2.09597,4.610086 4.46222,-2.681573 2.24139,-6.906883 4.22533,-6.596398 6.77704,1.0606 2.26565,6.798589 2.96005,6.694548 4.73628,-0.709629 C 263.00537,46.309156 263.75379,45 265.15971,45 c 2.28724,0 2.29233,-0.0901 -0.50846,9 -2.94321,9.55231 -5.94745,10.541705 -8.56493,2.820716 -2.25187,-6.64252 -2.71242,-6.682641 -4.69014,-0.408585 -2.69595,8.552513 -5.58569,8.024979 -8.43417,-1.539691 z m 28.2083,-0.917291 c -1.28133,-4.471007 -2.08824,-8.370556 -1.79313,-8.665665 1.44939,-1.449387 3.51038,1.07334 4.60515,5.636878 1.66591,6.944263 2.48125,6.998946 4.65351,0.312098 2.51147,-7.731069 4.61489,-8.049493 6.88866,-1.042829 2.45225,7.556689 2.97508,7.648564 4.88051,0.857645 C 291.71958,46.368201 292.53303,45 294.00391,45 c 1.80479,0 1.82718,0.239052 0.44497,4.75 -0.8005,2.6125 -1.92132,6.4375 -2.49071,8.5 -1.71071,6.196696 -5.35501,5.33663 -7.41515,-1.75 -1.98647,-6.833242 -2.67992,-6.871274 -4.55831,-0.25 -1.2395,4.369228 -1.90839,5.299009 -3.98704,5.542127 -2.32531,0.271968 -2.65844,-0.268849 -4.82736,-7.836978 z M 301.04183,58.25 c -0.56939,-2.0625 -1.69021,-5.8875 -2.49071,-8.5 -1.38221,-4.510948 -1.35982,-4.75 0.44497,-4.75 1.47088,0 2.28433,1.368201 3.5989,6.053276 1.90543,6.790919 2.42826,6.699044 4.88051,-0.857645 2.27377,-7.006664 4.37719,-6.68824 6.88866,1.042829 2.17226,6.686848 2.9876,6.632165 4.65351,-0.312098 1.09477,-4.563538 3.15576,-7.086265 4.60515,-5.636878 0.29511,0.295109 -0.5118,4.194658 -1.79313,8.665665 -2.16855,7.566833 -2.50236,8.108899 -4.82608,7.836978 -2.09164,-0.244764 -2.72309,-1.14332 -3.89466,-5.542127 -1.77142,-6.650995 -2.65968,-6.603259 -4.65197,0.25 -2.06014,7.08663 -5.70444,7.946696 -7.41515,1.75 z"
         id="path131" />
    </g>
  </g>
</svg>
